<?xml version="1.0" encoding="UTF-8" standalone="no"?>
<!-- Uploaded to: SVG Repo, www.svgrepo.com, Generator: SVG Repo Mixer Tools -->

<svg
   width="800"
   height="800"
   viewBox="-1 0 32 32"
   version="1.1"
   id="svg1"
   xml:space="preserve"
   xmlns="http://www.w3.org/2000/svg"
   xmlns:svg="http://www.w3.org/2000/svg"><title
     id="title1">calendar</title><desc
     id="desc1">Created with Sketch Beta.</desc><defs
     id="defs1" /><g
     style="fill:#000000;fill-opacity:1"
     id="g6"
     transform="matrix(1.3333333,0,0,1.3333333,-0.9999996,4e-7)"><path
       fill-rule="evenodd"
       clip-rule="evenodd"
       d="M 7.25007,2.38782 C 8.54878,2.0992 10.1243,2 12,2 13.8757,2 15.4512,2.0992 16.7499,2.38782 18.06,2.67897 19.1488,3.176 19.9864,4.01358 20.824,4.85116 21.321,5.94002 21.6122,7.25007 21.9008,8.54878 22,10.1243 22,12 22,13.8757 21.9008,15.4512 21.6122,16.7499 21.321,18.06 20.824,19.1488 19.9864,19.9864 19.1488,20.824 18.06,21.321 16.7499,21.6122 15.4512,21.9008 13.8757,22 12,22 10.1243,22 8.54878,21.9008 7.25007,21.6122 5.94002,21.321 4.85116,20.824 4.01358,19.9864 3.176,19.1488 2.67897,18.06 2.38782,16.7499 2.0992,15.4512 2,13.8757 2,12 2,10.1243 2.0992,8.54878 2.38782,7.25007 2.67897,5.94002 3.176,4.85116 4.01358,4.01358 4.85116,3.176 5.94002,2.67897 7.25007,2.38782 Z"
       fill="#323232"
       id="path1-2"
       style="fill:#000000;fill-opacity:1;stroke-width:0.99999;stroke-dasharray:none" /></g><g
     id="g7"
     transform="translate(-1.3453641,-1.1010311)"
     style="fill:#e191b8;fill-opacity:1"><g
       id="g5"
       transform="matrix(-0.37155834,0,0,-0.37155834,21.827466,25.049366)"
       style="fill:#4c7a63;fill-opacity:1"><path
         d="m 7.425551,29.129841 h 3.104023 V 26.212098 H 7.425551 V 18.917743 C 7.425551,17.306319 6.035832,16 4.321526,16 6.035832,16 7.425551,14.693682 7.425551,13.082257 V 5.7879016 h 3.104023 V 2.8701585 H 7.425551 C 5.764898,3.2640545 4.321526,4.1831426 4.321526,5.7879016 v 5.8354854 c 0,1.611424 -1.389718,2.917742 -3.104023,2.917742 h -1.55201304 v 2.917742 H 1.217503 c 1.714305,0 3.104023,1.306319 3.104023,2.917743 v 5.835484 c 0,1.611424 1.38972,2.917744 3.104025,2.917744"
         style="fill:#4c7a63;fill-opacity:1;stroke-width:0.4;stroke-dasharray:none;paint-order:markers stroke fill"
         id="path1-1" /><path
         d="m 22.664345,29.129841 h -3.104023 v -2.917743 h 3.104023 v -7.294355 c 0,-1.611424 1.389719,-2.917742 3.104025,-2.917742 -1.714306,0 -3.104025,-1.306318 -3.104025,-2.917743 V 5.7879015 H 19.560322 V 2.8701584 h 3.104023 c 1.660653,0.393896 3.104025,1.3129841 3.104025,2.9177431 v 5.8354855 c 0,1.611424 1.389718,2.917742 3.104023,2.917742 h 1.552013 v 2.917742 h -1.552013 c -1.714305,0 -3.104023,1.306319 -3.104023,2.917743 v 5.835484 c 0,1.611424 -1.38972,2.917744 -3.104025,2.917744"
         style="fill:#4c7a63;fill-opacity:1;stroke-width:0.4;stroke-dasharray:none;paint-order:markers stroke fill"
         id="path1-1-2" /></g><path
       fill="#000000"
       fill-rule="evenodd"
       d="m 7.6030713,9.7606352 c 0,-0.6944696 0.5619398,-1.2574484 1.2574477,-1.2574484 h 14.96969 c 0.694469,0 1.257448,0.561942 1.257448,1.2574484 V 24.730326 c 0,0.694469 -0.561941,1.257448 -1.257448,1.257448 H 8.860519 c -0.6944695,0 -1.2574477,-0.561941 -1.2574477,-1.257448 z M 8.8519699,13.498784 H 23.838758 V 24.738875 H 8.8519699 Z M 11.349768,7.8787382 c 0,-0.3448732 0.267309,-0.62445 0.6303,-0.62445 h 1.237198 c 0.348106,0 0.6303,0.2896627 0.6303,0.62445 v 0.6244486 h -2.497798 z m 7.493394,0 c 0,-0.3448732 0.267308,-0.62445 0.6303,-0.62445 h 1.237198 c 0.348105,0 0.6303,0.2896627 0.6303,0.62445 v 0.6244486 h -2.497798 z"
       id="path1"
       style="fill:#e191b8;fill-opacity:1;stroke-width:1.24889" /></g></svg>
